<?xml version="1.0" encoding="UTF-8" standalone="no"?>
<svg xmlns="http://www.w3.org/2000/svg" width="1300" height="1200" viewBox="0 0 1300 1200">
<defs>
  <linearGradient id="atmGrad" x1="0" x2="0" y1="0" y2="1">
    <stop offset="0%" stop-color="#EAF6FF" stop-opacity="1"/>
    <stop offset="100%" stop-color="#DDEFF7" stop-opacity="1"/>
  </linearGradient>
  <linearGradient id="surfGrad" x1="0" x2="0" y1="0" y2="1">
    <stop offset="0%" stop-color="#FFFFFF" stop-opacity="1"/>
    <stop offset="100%" stop-color="#E9F7EA" stop-opacity="1"/>
  </linearGradient>
  <filter id="softShadow" x="-20%" y="-20%" width="140%" height="140%">
    <feDropShadow dx="0" dy="8" stdDeviation="12" flood-color="#000000" flood-opacity="0.10"/>
  </filter>

  <marker id="arrow_gold" viewBox="0 0 10 10" refX="6" refY="5" markerWidth="7" markerHeight="7" orient="auto">
    <path d="M 0 0 L 10 5 L 0 10 z" fill="#F2C94C" />
  </marker>
  <marker id="arrow_red" viewBox="0 0 10 10" refX="6" refY="5" markerWidth="7" markerHeight="7" orient="auto">
    <path d="M 0 0 L 10 5 L 0 10 z" fill="#E94B3C" />
  </marker>
  <marker id="arrow_gray" viewBox="0 0 10 10" refX="6" refY="5" markerWidth="7" markerHeight="7" orient="auto">
    <path d="M 0 0 L 10 5 L 0 10 z" fill="#4a4a4a" />
  </marker>
</defs>

<rect width="100%" height="100%" fill="#ffffff"/>
<g id="sun">
  <circle cx="650.0" cy="30" r="22" fill="#FFD54A" stroke="#FFB300" stroke-width="2"/>
  <line x1="678.0" y1="30.0" x2="694.0" y2="30.0" stroke="#FFB300" stroke-width="2" stroke-linecap="round"/>
  <line x1="669.7989898732234" y1="49.79898987322333" x2="681.1126983722081" y2="61.11269837220809" stroke="#FFB300" stroke-width="2" stroke-linecap="round"/>
  <line x1="650.0" y1="58.0" x2="650.0" y2="74.0" stroke="#FFB300" stroke-width="2" stroke-linecap="round"/>
  <line x1="630.2010101267766" y1="49.798989873223334" x2="618.8873016277919" y2="61.112698372208094" stroke="#FFB300" stroke-width="2" stroke-linecap="round"/>
  <line x1="622.0" y1="30.000000000000004" x2="606.0" y2="30.000000000000007" stroke="#FFB300" stroke-width="2" stroke-linecap="round"/>
  <line x1="630.2010101267766" y1="10.201010126776673" x2="618.8873016277919" y2="-1.1126983722080865" stroke="#FFB300" stroke-width="2" stroke-linecap="round"/>
  <line x1="650.0" y1="2.0" x2="650.0" y2="-14.0" stroke="#FFB300" stroke-width="2" stroke-linecap="round"/>
  <line x1="669.7989898732234" y1="10.201010126776666" x2="681.1126983722081" y2="-1.1126983722080972" stroke="#FFB300" stroke-width="2" stroke-linecap="round"/>
</g>
<g filter="url(#softShadow)">
  <rect x="96" y="72" rx="14" ry="14" width="1108" height="520" fill="url(#atmGrad)" stroke="#9fb7cf" stroke-width="1.6"/>
</g>
<line x1="108" y1="254.0" x2="1192" y2="254.0" stroke="#2f556e" stroke-width="1.2" stroke-dasharray="6,6" opacity="0.8"/>
<text x="116" y="246.0" font-family="Verdana, Arial, sans-serif" font-size="13" fill="#2f556e">Tropopause (guide)</text>
<text x="114" y="108" font-family="Verdana, Arial, sans-serif" font-size="24" fill="#08121A">Atmosphere</text>
<g filter="url(#softShadow)">
  <rect x="96" y="592" rx="12" ry="12" width="1108" height="160" fill="url(#surfGrad)" stroke="#62A05F" stroke-width="1.6"/>
</g>
<text x="114" y="624" font-family="Verdana, Arial, sans-serif" font-size="24" fill="#08121A">Surface</text>
<path d="M 650.0 66 C 658.0 260, 630.0 529.6, 650.0 649.6" fill="none" stroke="#F2C94C" stroke-width="18.7" stroke-linecap="round" stroke-linejoin="round" marker-end="url(#arrow_gold)"/>
<text x="645.5" y="321.55" font-family="Verdana, Arial, sans-serif" font-size="18" fill="#08121A" text-anchor="middle">SW Down 336.4 W/m²</text>
<text x="606.0" y="657.6" font-family="Verdana, Arial, sans-serif" font-size="18" fill="#08121A" text-anchor="end">SW Absorbed 235.3 W/m²</text>
<path d="M 1115.3600000000001 108 C 1163.3600000000001 140, 1135.3600000000001 10, 1127.3600000000001 24" fill="none" stroke="#F2C94C" stroke-width="6.97" stroke-linecap="round" marker-end="url(#arrow_gold)"/>
<text x="1211.3600000000001" y="44" font-family="Verdana, Arial, sans-serif" font-size="18" fill="#08121A">Reflected 101.2 W/m²</text>
<path d="M 384.08 612 C 298.08 532, 342.08 344.0, 392.08 384.0" fill="none" stroke="#E94B3C" stroke-width="21.27" stroke-linecap="round" marker-end="url(#arrow_red)"/>
<text x="311.08" y="447.0" font-family="Verdana, Arial, sans-serif" font-size="18" fill="#08121A" text-anchor="end">LW Up 391.5 W/m²</text>
<path d="M 494.88 560.8 C 526.88 650.8, 474.88 526.4, 502.88 646.4" fill="none" stroke="#E94B3C" stroke-width="19.24" stroke-linecap="round" marker-end="url(#arrow_red)"/>
<text x="478.38" y="612.3499999999999" font-family="Verdana, Arial, sans-serif" font-size="18" fill="#08121A" text-anchor="end">LW Down 348.0 W/m²</text>
<path d="M 228.96 124.0 C 184.96 284.0, 208.96 18, 222.96 18" fill="none" stroke="#E94B3C" stroke-width="8.7" stroke-linecap="round" marker-end="url(#arrow_red)"/>
<text x="210.96" y="36" font-family="Verdana, Arial, sans-serif" font-size="18" fill="#08121A" text-anchor="end">OLR 233.4 W/m²</text>
<path d="M 849.44 610 C 889.44 490, 877.44 308.0, 857.44 228.0" fill="none" stroke="#4a4a4a" stroke-width="8.57" stroke-dasharray="10,6" stroke-linecap="round" marker-end="url(#arrow_gray)"/>
<text x="911.94" y="390.0" font-family="Verdana, Arial, sans-serif" font-size="18" fill="#08121A">Sensible 15.9 W/m²</text>
<path d="M 1004.56 610 C 1048.56 470, 1038.56 392.0, 1014.56 332.0" fill="none" stroke="#4a4a4a" stroke-width="11.27" stroke-dasharray="10,6" stroke-linecap="round" marker-end="url(#arrow_gray)"/>
<text x="1071.06" y="453.0" font-family="Verdana, Arial, sans-serif" font-size="18" fill="#08121A">Latent 94.5 W/m²</text>
<text x="650.0" y="128" font-family="Verdana, Arial, sans-serif" font-size="24" fill="#08121A" text-anchor="middle">Atmosphere net = -88.7 W/m²</text>
<text x="650.0" y="1128" font-family="Verdana, Arial, sans-serif" font-size="24" fill="#08121A" text-anchor="middle">Surface net = 81.4 W/m²</text>
<g>
  <rect x="940" y="980" rx="10" ry="10" width="300" height="180" fill="#ffffff" stroke="#e6eef5" />
  <text x="964" y="1022" font-family="Verdana, Arial, sans-serif" font-size="15" fill="#08121A">Legend</text>
  <line x1="964" y1="1062" x2="1050" y2="1062" stroke="#F2C94C" stroke-width="12" stroke-linecap="round"/>
  <text x="1070" y="1066" font-family="Verdana, Arial, sans-serif" font-size="15" fill="#08121A">Shortwave</text>
  <line x1="964" y1="1102" x2="1050" y2="1102" stroke="#E94B3C" stroke-width="12" stroke-linecap="round"/>
  <text x="1070" y="1106" font-family="Verdana, Arial, sans-serif" font-size="15" fill="#08121A">Longwave</text>
  <line x1="964" y1="1142" x2="1050" y2="1142" stroke="#4a4a4a" stroke-width="10" stroke-dasharray="10,6" stroke-linecap="round"/>
  <text x="1070" y="1146" font-family="Verdana, Arial, sans-serif" font-size="15" fill="#08121A">Turbulent (Sensible/Latent)</text>
</g>
<text x="16" y="1182" font-family="Verdana, Arial, sans-serif" font-size="13" fill="#666666">Generated: 2025-11-28 10:22 — trenberth_optionA_spacious (random example)</text>
</svg>
